<svg width="562" height="150" viewBox="0 0 562 150" fill="none" xmlns="http://www.w3.org/2000/svg">
  <path fill-rule="evenodd" clip-rule="evenodd" d="M137 23L201.5 0L267.7 22.6L257 107.9L201.5 138.6L146.9 108.3L137 23Z" fill="#FF9900"/>
  <path fill-rule="evenodd" clip-rule="evenodd" d="M267.7 22.6L201.5 0V138.6L257 107.9L267.7 22.6Z" fill="black" fill-opacity="0.13"/>
  <path d="M200.688 103.062L226.688 28H239.812L206.062 119H195.438L161.75 28H174.812L200.688 103.062Z" fill="white"/>
  <path d="M298.406 79.125H279.344L275.062 91H268.875L286.25 45.5H291.5L308.906 91H302.75L298.406 79.125ZM281.156 74.1875H296.625L288.875 52.9062L281.156 74.1875ZM321.062 86.0938H342.625V91H315.031V45.5H321.062V86.0938ZM355.906 91H349.906V45.5H355.906V91ZM366.906 91V45.5H379.75C383.708 45.5 387.208 46.375 390.25 48.125C393.292 49.875 395.635 52.3646 397.281 55.5938C398.948 58.8229 399.792 62.5312 399.812 66.7188V69.625C399.812 73.9167 398.979 77.6771 397.312 80.9062C395.667 84.1354 393.302 86.6146 390.219 88.3438C387.156 90.0729 383.583 90.9583 379.5 91H366.906ZM372.906 50.4375V86.0938H379.219C383.844 86.0938 387.438 84.6562 390 81.7812C392.583 78.9062 393.875 74.8125 393.875 69.5V66.8438C393.875 61.6771 392.656 57.6667 390.219 54.8125C387.802 51.9375 384.365 50.4792 379.906 50.4375H372.906ZM433.344 79.125H414.281L410 91H403.812L421.188 45.5H426.438L443.844 91H437.688L433.344 79.125ZM416.094 74.1875H431.562L423.812 52.9062L416.094 74.1875ZM477.344 50.4375H462.719V91H456.75V50.4375H442.156V45.5H477.344V50.4375ZM518.219 69.7188C518.219 74.1771 517.469 78.0729 515.969 81.4062C514.469 84.7188 512.344 87.25 509.594 89C506.844 90.75 503.635 91.625 499.969 91.625C496.385 91.625 493.208 90.75 490.438 89C487.667 87.2292 485.51 84.7188 483.969 81.4688C482.448 78.1979 481.667 74.4167 481.625 70.125V66.8438C481.625 62.4688 482.385 58.6042 483.906 55.25C485.427 51.8958 487.573 49.3333 490.344 47.5625C493.135 45.7708 496.323 44.875 499.906 44.875C503.552 44.875 506.76 45.7604 509.531 47.5312C512.323 49.2812 514.469 51.8333 515.969 55.1875C517.469 58.5208 518.219 62.4062 518.219 66.8438V69.7188ZM512.25 66.7812C512.25 61.3854 511.167 57.25 509 54.375C506.833 51.4792 503.802 50.0312 499.906 50.0312C496.115 50.0312 493.125 51.4792 490.938 54.375C488.771 57.25 487.656 61.25 487.594 66.375V69.7188C487.594 74.9479 488.688 79.0625 490.875 82.0625C493.083 85.0417 496.115 86.5312 499.969 86.5312C503.844 86.5312 506.844 85.125 508.969 82.3125C511.094 79.4792 512.188 75.4271 512.25 70.1562V66.7812ZM543.906 72.5938H533.219V91H527.188V45.5H542.25C547.375 45.5 551.312 46.6667 554.062 49C556.833 51.3333 558.219 54.7292 558.219 59.1875C558.219 62.0208 557.448 64.4896 555.906 66.5938C554.385 68.6979 552.26 70.2708 549.531 71.3125L560.219 90.625V91H553.781L543.906 72.5938ZM533.219 67.6875H542.438C545.417 67.6875 547.781 66.9167 549.531 65.375C551.302 63.8333 552.188 61.7708 552.188 59.1875C552.188 56.375 551.344 54.2188 549.656 52.7188C547.99 51.2188 545.573 50.4583 542.406 50.4375H533.219V67.6875Z" fill="white"/>
  <path d="M40.25 91H34.2188L11.3125 55.9375V91H5.28125V45.5H11.3125L34.2812 80.7188V45.5H40.25V91ZM84.5 85.0312C82.9583 87.2396 80.8021 88.8958 78.0312 90C75.2812 91.0833 72.0729 91.625 68.4062 91.625C64.6979 91.625 61.4062 90.7604 58.5312 89.0312C55.6562 87.2812 53.4271 84.8021 51.8438 81.5938C50.2812 78.3854 49.4792 74.6667 49.4375 70.4375V66.4688C49.4375 59.6146 51.0312 54.3021 54.2188 50.5312C57.4271 46.7604 61.9271 44.875 67.7188 44.875C72.4688 44.875 76.2917 46.0938 79.1875 48.5312C82.0833 50.9479 83.8542 54.3854 84.5 58.8438H78.5C77.375 52.8229 73.7917 49.8125 67.75 49.8125C63.7292 49.8125 60.6771 51.2292 58.5938 54.0625C56.5312 56.875 55.4896 60.9583 55.4688 66.3125V70.0312C55.4688 75.1354 56.6354 79.1979 58.9688 82.2188C61.3021 85.2188 64.4583 86.7188 68.4375 86.7188C70.6875 86.7188 72.6562 86.4688 74.3438 85.9688C76.0312 85.4688 77.4271 84.625 78.5312 83.4375V73.2188H68V68.3438H84.5V85.0312ZM109.375 62.9375L120.281 45.5H127.344L112.969 68.0625L127.688 91H120.562L109.375 73.25L98.125 91H91.0312L105.781 68.0625L91.375 45.5H98.4062L109.375 62.9375Z" fill="white"/>
</svg>
